# xmcd CD database file
#
# Track frame offsets:
#	150
#	25275
#	44063
#	63824
#	78958
#	103730
#	134892
#	157558
#	185897
#	204157
#	239633
#	256058
#	285501
#	298000
#	326582
#
# Disc length: 4698 seconds
#
# Revision: 0
# Processed by: cddbd v1.5.2PL0 Copyright (c) Steve Scherf et al.
# Submitted via: CDex 1.70beta2
#
DISCID=da12580f
DTITLE=Modern Jazz Quartet - The Comedy - Lonely Woman
DYEAR=1962
DGENRE=Jazz
TTITLE0=Spanish Steps
TTITLE1=Columbine
TTITLE2=Pulcinella
TTITLE3=Pierrot
TTITLE4=La Cantatrice
TTITLE5=Harlequin
TTITLE6=Piazza Navona
TTITLE7=Lonely Woman
TTITLE8=Animal Dance
TTITLE9=New York 19
TTITLE10=Belkis
TTITLE11=Why Are You Blue
TTITLE12=Fugato
TTITLE13=Lamb, Leopard
TTITLE14=Trieste
EXTD=YEAR: 1962
EXTT0=
EXTT1=
EXTT2=
EXTT3=
EXTT4=
EXTT5=
EXTT6=
EXTT7=
EXTT8=
EXTT9=
EXTT10=
EXTT11=
EXTT12=
EXTT13=
EXTT14=
PLAYORDER=
